<svg width="650" height="122" viewBox="0 0 650 122" fill="none" xmlns="http://www.w3.org/2000/svg">
<rect width="650" height="122" fill="white"/>
<path d="M34.1136 100.133C44.0926 110.118 57.8824 116.296 73.1105 116.296C88.3385 116.296 102.128 110.118 112.107 100.133L112.11 100.136C117.497 94.7467 117.497 86.0116 112.11 80.6252C106.727 75.2387 97.9969 75.2387 92.6104 80.6252C87.6209 85.6175 80.726 88.7064 73.1105 88.7064C65.4949 88.7064 58.6 85.6175 53.6105 80.6252C48.224 75.2387 39.4939 75.2387 34.1105 80.6252C28.7271 86.0116 28.7271 94.7467 34.1136 100.133Z" fill="#F8C14B"/>
<path d="M34.1502 100.139C39.5336 105.529 48.2637 105.529 53.6502 100.142C59.0336 94.7528 59.0366 86.0178 53.6502 80.6313C48.6607 75.639 45.5735 68.7402 45.5735 61.1203C45.5735 53.5004 48.6607 46.6016 53.6502 41.6093C59.0336 36.2198 59.0336 27.4847 53.6502 22.0983C48.2637 16.7088 39.5336 16.7088 34.1502 22.0983L34.1533 22.1013C24.1743 32.086 18 45.8836 18 61.1203C18 76.357 24.1712 90.1516 34.1502 100.139Z" fill="#3F9F9B"/>
<path d="M112.11 22.1624C102.131 12.1778 88.3415 6 73.1135 6C57.8854 6 44.0956 12.1778 34.1136 22.1624L34.1105 22.1594C28.7241 27.5489 28.7241 36.2839 34.1105 41.6704C39.4939 47.0599 48.224 47.0599 53.6105 41.6704C58.6 36.6781 65.4949 33.5892 73.1104 33.5892C80.726 33.5892 87.6209 36.6781 92.6104 41.6704C97.9969 47.0568 106.727 47.0568 112.11 41.6704C117.497 36.287 117.497 27.5489 112.11 22.1624Z" fill="#2E7487"/>
<g opacity="0.5">
<path opacity="0.5" d="M92.6073 41.6734C97.9907 47.0599 106.724 47.0629 112.107 41.6734L112.11 41.6704L112.113 41.6673C117.497 36.2778 117.497 27.5428 112.113 22.1563C106.782 16.8218 98.177 16.7729 92.7814 21.9974C92.7264 22.0524 92.6684 22.1044 92.6134 22.1594C92.5585 22.2144 92.5066 22.2724 92.4516 22.3274C87.227 27.7291 87.2758 36.342 92.6073 41.6734Z" fill="#1D1E1C"/>
</g>
<path d="M112.107 80.6252C106.721 75.2387 97.9908 75.2387 92.6073 80.6252C87.2759 85.9597 87.227 94.5695 92.4486 99.9682C92.5035 100.023 92.5554 100.081 92.6104 100.136C92.6654 100.191 92.7234 100.246 92.7783 100.298C98.174 105.523 106.782 105.474 112.113 100.139C117.497 94.7528 117.497 86.0147 112.113 80.6282L112.11 80.6252H112.107Z" fill="#F3853E"/>
<g opacity="0.5">
<path opacity="0.5" d="M34.1105 41.6734C39.4939 47.0599 48.2271 47.0629 53.6105 41.6734L53.6135 41.6704C53.6135 41.6704 53.6135 41.6673 53.6166 41.6673C59 36.2778 59 27.5428 53.6166 22.1563C48.2851 16.8248 39.6802 16.7729 34.2815 21.9974C34.2266 22.0524 34.1686 22.1044 34.1136 22.1594C34.0586 22.2144 34.0067 22.2724 33.9487 22.3274C28.7302 27.7291 28.779 36.342 34.1105 41.6734Z" fill="#1D1E1C"/>
</g>
<path d="M53.6105 80.6252C48.224 75.2387 39.4939 75.2387 34.1105 80.6252C28.779 85.9566 28.7302 94.5695 33.9517 99.9682C34.0067 100.023 34.0617 100.081 34.1136 100.136C34.1685 100.191 34.2265 100.246 34.2815 100.298C39.6802 105.523 48.2851 105.474 53.6166 100.139C59 94.7528 59.003 86.0147 53.6166 80.6282L53.6135 80.6252H53.6105Z" fill="#29681E"/>
<path d="M150.336 81.768C146.837 81.768 143.616 80.9573 140.672 79.336C137.728 77.7147 135.36 75.3253 133.568 72.168C131.819 68.968 130.944 65.0427 130.944 60.392C130.944 55.784 131.84 51.8587 133.632 48.616C135.467 45.3307 137.877 42.8347 140.864 41.128C143.893 39.3787 147.157 38.504 150.656 38.504C153.344 38.504 155.755 39.0587 157.888 40.168C160.021 41.2347 161.792 42.4933 163.2 43.944L158.208 49.96C157.141 48.9787 156.011 48.1893 154.816 47.592C153.664 46.952 152.341 46.632 150.848 46.632C148.971 46.632 147.243 47.1653 145.664 48.232C144.128 49.2987 142.891 50.8347 141.952 52.84C141.056 54.8453 140.608 57.256 140.608 60.072C140.608 64.3387 141.525 67.6667 143.36 70.056C145.195 72.4453 147.648 73.64 150.72 73.64C152.427 73.64 153.941 73.256 155.264 72.488C156.629 71.72 157.824 70.8027 158.848 69.736L163.84 75.624C160.341 79.72 155.84 81.768 150.336 81.768ZM170.178 81V39.272H179.586V55.336H193.986V39.272H203.458V81H193.986V63.592H179.586V81H170.178ZM223.095 59.88L222.071 63.72H230.967L230.007 59.88C229.452 57.7893 228.876 55.5707 228.279 53.224C227.724 50.8773 227.17 48.616 226.615 46.44H226.359C225.847 48.6587 225.314 50.9413 224.759 53.288C224.247 55.592 223.692 57.7893 223.095 59.88ZM207.991 81L221.047 39.272H232.375L245.431 81H235.447L232.887 71.08H220.151L217.591 81H207.991ZM249.991 81V39.272H265.031C267.975 39.272 270.663 39.6773 273.095 40.488C275.527 41.256 277.468 42.5787 278.919 44.456C280.369 46.3333 281.095 48.936 281.095 52.264C281.095 55.336 280.412 57.8747 279.047 59.88C277.724 61.8427 275.932 63.3147 273.671 64.296L283.143 81H272.583L264.583 65.96H259.399V81H249.991ZM259.399 58.472H264.263C266.737 58.472 268.615 57.96 269.895 56.936C271.217 55.8693 271.879 54.312 271.879 52.264C271.879 50.216 271.217 48.7867 269.895 47.976C268.615 47.1653 266.737 46.76 264.263 46.76H259.399V58.472ZM289.241 81V39.272H299.545L306.265 57.832C306.691 59.0267 307.097 60.2853 307.481 61.608C307.865 62.9307 308.27 64.232 308.697 65.512H308.953C309.379 64.232 309.763 62.9307 310.105 61.608C310.489 60.2853 310.894 59.0267 311.321 57.832L317.913 39.272H328.153V81H319.576V65.704C319.576 64.3387 319.641 62.824 319.769 61.16C319.939 59.4533 320.11 57.7467 320.281 56.04C320.494 54.3333 320.665 52.8187 320.793 51.496H320.537L317.145 61.416L311.193 77.352H306.009L300.057 61.416L296.729 51.496H296.473C296.643 52.8187 296.814 54.3333 296.985 56.04C297.155 57.7467 297.305 59.4533 297.433 61.16C297.603 62.824 297.689 64.3387 297.689 65.704V81H289.241ZM363.411 81.768C360.595 81.768 357.864 81.2347 355.219 80.168C352.616 79.1013 350.312 77.5867 348.307 75.624L352.659 70.568C354.152 71.976 355.859 73.128 357.779 74.024C359.699 74.8773 361.619 75.304 363.539 75.304C365.928 75.304 367.742 74.8133 368.979 73.832C370.216 72.8507 370.835 71.5493 370.835 69.928C370.835 68.1787 370.216 66.92 368.979 66.152C367.784 65.384 366.248 64.5947 364.371 63.784L358.611 61.288C357.246 60.6907 355.902 59.9227 354.579 58.984C353.299 58.0453 352.232 56.8507 351.379 55.4C350.568 53.9493 350.163 52.2 350.163 50.152C350.163 47.9333 350.76 45.9493 351.955 44.2C353.192 42.408 354.856 41 356.947 39.976C359.08 38.9093 361.512 38.376 364.243 38.376C366.675 38.376 369.022 38.8667 371.283 39.848C373.544 40.7867 375.486 42.0667 377.107 43.688L373.331 48.424C372.008 47.3147 370.6 46.44 369.107 45.8C367.656 45.16 366.035 44.84 364.243 44.84C362.28 44.84 360.68 45.288 359.443 46.184C358.248 47.0373 357.651 48.232 357.651 49.768C357.651 50.8347 357.95 51.7307 358.547 52.456C359.187 53.1387 360.019 53.736 361.043 54.248C362.067 54.7173 363.155 55.1867 364.307 55.656L370.003 58.024C372.478 59.0907 374.504 60.4987 376.083 62.248C377.662 63.9547 378.451 66.3227 378.451 69.352C378.451 71.6133 377.854 73.6827 376.659 75.56C375.464 77.4373 373.736 78.952 371.475 80.104C369.256 81.2133 366.568 81.768 363.411 81.768ZM398.286 81.768C395.683 81.768 393.251 81.128 390.99 79.848C388.729 78.5253 386.894 76.648 385.486 74.216C384.078 71.7413 383.374 68.776 383.374 65.32C383.374 61.8213 384.078 58.856 385.486 56.424C386.894 53.9493 388.729 52.072 390.99 50.792C393.251 49.4693 395.683 48.808 398.286 48.808C400.931 48.808 403.385 49.4693 405.646 50.792C407.907 52.072 409.742 53.9493 411.15 56.424C412.558 58.856 413.262 61.8213 413.262 65.32C413.262 68.776 412.558 71.7413 411.15 74.216C409.742 76.648 407.907 78.5253 405.646 79.848C403.385 81.128 400.931 81.768 398.286 81.768ZM398.286 75.752C400.59 75.752 402.403 74.792 403.726 72.872C405.049 70.952 405.71 68.4347 405.71 65.32C405.71 62.1627 405.049 59.624 403.726 57.704C402.403 55.784 400.59 54.824 398.286 54.824C395.982 54.824 394.169 55.784 392.846 57.704C391.566 59.624 390.926 62.1627 390.926 65.32C390.926 68.4347 391.566 70.952 392.846 72.872C394.169 74.792 395.982 75.752 398.286 75.752ZM427.715 81.768C425.112 81.768 423.256 80.9787 422.147 79.4C421.08 77.8213 420.547 75.6667 420.547 72.936V35.816H427.907V73.32C427.907 74.216 428.078 74.856 428.419 75.24C428.76 75.5813 429.123 75.752 429.507 75.752C429.678 75.752 429.827 75.752 429.955 75.752C430.126 75.7093 430.36 75.6667 430.659 75.624L431.619 81.128C431.192 81.2987 430.638 81.448 429.955 81.576C429.315 81.704 428.568 81.768 427.715 81.768ZM447.266 81.768C443.895 81.768 441.442 80.68 439.906 78.504C438.37 76.328 437.602 73.256 437.602 69.288V49.576H444.962V68.328C444.962 70.9307 445.346 72.7653 446.114 73.832C446.882 74.8987 448.119 75.432 449.826 75.432C451.191 75.432 452.386 75.0907 453.41 74.408C454.477 73.7253 455.607 72.616 456.802 71.08V49.576H464.162V81H458.146L457.57 76.392H457.378C456.013 78.0133 454.519 79.3147 452.898 80.296C451.277 81.2773 449.399 81.768 447.266 81.768ZM484.557 81.768C480.93 81.768 478.349 80.7227 476.812 78.632C475.319 76.4987 474.573 73.7467 474.573 70.376V55.4H470.093V49.896L474.957 49.576L475.853 41H481.997V49.576H489.997V55.4H481.997V70.376C481.997 74.0453 483.469 75.88 486.413 75.88C486.967 75.88 487.543 75.816 488.141 75.688C488.738 75.5173 489.25 75.3467 489.677 75.176L490.957 80.616C490.103 80.9147 489.122 81.1707 488.013 81.384C486.946 81.64 485.794 81.768 484.557 81.768ZM496.61 81V49.576H503.97V81H496.61ZM500.322 44.072C498.999 44.072 497.932 43.688 497.122 42.92C496.311 42.152 495.906 41.128 495.906 39.848C495.906 38.6107 496.311 37.608 497.122 36.84C497.932 36.072 498.999 35.688 500.322 35.688C501.644 35.688 502.711 36.072 503.522 36.84C504.332 37.608 504.738 38.6107 504.738 39.848C504.738 41.128 504.332 42.152 503.522 42.92C502.711 43.688 501.644 44.072 500.322 44.072ZM526.224 81.768C523.621 81.768 521.189 81.128 518.928 79.848C516.666 78.5253 514.832 76.648 513.424 74.216C512.016 71.7413 511.312 68.776 511.312 65.32C511.312 61.8213 512.016 58.856 513.424 56.424C514.832 53.9493 516.666 52.072 518.928 50.792C521.189 49.4693 523.621 48.808 526.224 48.808C528.869 48.808 531.322 49.4693 533.584 50.792C535.845 52.072 537.68 53.9493 539.088 56.424C540.496 58.856 541.2 61.8213 541.2 65.32C541.2 68.776 540.496 71.7413 539.088 74.216C537.68 76.648 535.845 78.5253 533.584 79.848C531.322 81.128 528.869 81.768 526.224 81.768ZM526.224 75.752C528.528 75.752 530.341 74.792 531.664 72.872C532.986 70.952 533.648 68.4347 533.648 65.32C533.648 62.1627 532.986 59.624 531.664 57.704C530.341 55.784 528.528 54.824 526.224 54.824C523.92 54.824 522.106 55.784 520.784 57.704C519.504 59.624 518.864 62.1627 518.864 65.32C518.864 68.4347 519.504 70.952 520.784 72.872C522.106 74.792 523.92 75.752 526.224 75.752ZM548.485 81V49.576H554.565L555.077 53.8H555.333C556.741 52.4347 558.277 51.2613 559.941 50.28C561.605 49.2987 563.503 48.808 565.637 48.808C569.007 48.808 571.461 49.896 572.997 52.072C574.533 54.248 575.301 57.32 575.301 61.288V81H567.941V62.248C567.941 59.6453 567.557 57.8107 566.789 56.744C566.021 55.6773 564.762 55.144 563.013 55.144C561.647 55.144 560.431 55.4853 559.365 56.168C558.341 56.808 557.167 57.768 555.845 59.048V81H548.485ZM593.065 81.768C590.932 81.768 588.798 81.3627 586.665 80.552C584.532 79.6987 582.697 78.6533 581.161 77.416L584.617 72.68C586.025 73.7467 587.433 74.6 588.841 75.24C590.249 75.88 591.742 76.2 593.321 76.2C595.028 76.2 596.286 75.8373 597.097 75.112C597.908 74.3867 598.313 73.4907 598.313 72.424C598.313 71.528 597.972 70.8027 597.289 70.248C596.649 69.6507 595.817 69.1387 594.793 68.712C593.769 68.2427 592.702 67.7947 591.593 67.368C590.228 66.856 588.862 66.2373 587.497 65.512C586.174 64.744 585.086 63.784 584.233 62.632C583.38 61.4373 582.953 59.9653 582.953 58.216C582.953 55.4427 583.977 53.1813 586.025 51.432C588.073 49.6827 590.846 48.808 594.345 48.808C596.564 48.808 598.548 49.192 600.297 49.96C602.046 50.728 603.561 51.6027 604.841 52.584L601.449 57.064C600.34 56.2533 599.209 55.6133 598.057 55.144C596.948 54.632 595.774 54.376 594.537 54.376C592.958 54.376 591.785 54.7173 591.017 55.4C590.249 56.04 589.865 56.8507 589.865 57.832C589.865 59.0693 590.505 60.008 591.785 60.648C593.065 61.288 594.558 61.9067 596.265 62.504C597.716 63.016 599.124 63.656 600.489 64.424C601.854 65.1493 602.985 66.1093 603.881 67.304C604.82 68.4987 605.289 70.0773 605.289 72.04C605.289 74.728 604.244 77.032 602.153 78.952C600.062 80.8293 597.033 81.768 593.065 81.768Z" fill="#2E7487"/>
</svg>
